<?xml version="1.0" encoding="UTF-8"?>
<svg xmlns="http://www.w3.org/2000/svg" width="160" height="164" viewBox="0 0 160 164" fill="none">
  <g clip-path="url(#clip0_15060_6907)">
    <path d="M30.5503 54.2779H41.6409V83.3546C41.6409 88.3524 39.493 98.8487 24.1205 98.8487C8.74805 98.8487 7.07629 89.0788 7.07629 83.5874V78.2316H17.8054V83.4797C17.8054 86.6911 19.9498 89.6732 24.0058 89.6732C28.0618 89.6732 30.5538 87.414 30.5538 83.5909V54.2779H30.5503Z" fill="#231F20"></path>
    <path d="M58.7997 66.4319C67.5025 66.4319 75.1279 69.765 75.1279 85.141H54.5074C54.5074 90.0276 56.5371 92.0539 60.11 92.0539C63.6829 92.0539 64.8785 89.197 64.8785 89.197H75.0063C75.0063 93.6005 68.931 99.5646 59.752 99.4464C49.2627 99.4464 44.1432 91.6959 44.1432 83.7056C44.1432 75.7152 48.6684 66.4319 58.7997 66.4319ZM64.9932 78.9405C64.9932 75.962 63.3284 73.1051 59.5226 73.1051C55.7169 73.1051 54.5074 75.7256 54.5074 78.9405H64.9932Z" fill="#231F20"></path>
    <path d="M91.9328 66.4319C100.632 66.4319 108.247 69.765 108.247 85.141H87.6335C87.6335 90.0276 89.6702 92.0539 93.2396 92.0539C96.809 92.0539 98.0012 89.197 98.0012 89.197H108.132C108.132 93.6005 102.054 99.5646 92.8782 99.4464C82.3924 99.4464 77.2728 91.6959 77.2728 83.7056C77.2728 75.7152 81.8015 66.4319 91.9328 66.4319ZM98.1298 78.9405C98.1298 75.962 96.4615 73.1051 92.6418 73.1051C88.8222 73.1051 87.637 75.7256 87.637 78.9405H98.1298Z" fill="#231F20"></path>
    <path d="M110.864 108.733V67.6241H121.11V72.3091C121.475 71.5132 121.74 70.9676 122.546 70.0048C123.234 69.1776 125.159 66.7899 130.286 66.7899C135.412 66.7899 143.399 70.3628 143.399 82.9931C143.399 92.7664 138.627 99.9191 130.408 99.9191C125.882 99.9191 123.846 98.3342 122.661 97.4097C121.899 96.8224 121.663 96.5513 121.225 95.9778V108.73H110.861L110.864 108.733ZM120.992 83.3545C120.874 89.4298 122.177 92.6517 127.193 92.6517C132.208 92.6517 132.913 87.1637 132.913 82.9931C132.913 78.8224 131.954 74.7698 126.713 74.7698C123.495 74.7698 121.11 77.2757 120.992 83.3545Z" fill="#231F20"></path>
    <path fill-rule="evenodd" clip-rule="evenodd" d="M145.707 98.8487C144.681 99.8809 144.181 101.118 144.181 102.578C144.181 104.038 144.678 105.299 145.696 106.335C146.725 107.367 147.959 107.878 149.429 107.878C150.899 107.878 152.126 107.367 153.162 106.335C154.17 105.299 154.684 104.038 154.684 102.578C154.684 101.118 154.17 99.8774 153.162 98.8487C152.126 97.8129 150.882 97.302 149.429 97.302C147.976 97.302 146.739 97.8129 145.707 98.8487ZM153.759 106.919C152.574 108.125 151.125 108.726 149.429 108.726C147.733 108.726 146.294 108.125 145.098 106.919C143.917 105.723 143.326 104.267 143.326 102.578C143.326 100.889 143.924 99.4604 145.116 98.2578C146.308 97.0726 147.747 96.4714 149.429 96.4714C151.111 96.4714 152.571 97.0692 153.759 98.2578C154.959 99.4465 155.563 100.889 155.563 102.578C155.563 104.267 154.959 105.723 153.759 106.919ZM150.579 100.26C150.28 100.1 149.804 100.016 149.144 100.016H148.15V102.449H149.213C149.703 102.449 150.086 102.397 150.34 102.296C150.798 102.109 151.038 101.768 151.038 101.25C151.038 100.732 150.882 100.427 150.583 100.26M149.314 99.2101C150.155 99.2101 150.753 99.2796 151.142 99.4465C151.837 99.7245 152.182 100.308 152.182 101.139C152.182 101.74 151.97 102.182 151.525 102.47C151.288 102.616 150.965 102.724 150.548 102.79C151.069 102.866 151.459 103.099 151.705 103.443C151.942 103.801 152.07 104.149 152.081 104.479V104.987C152.081 105.133 152.081 105.306 152.084 105.484C152.098 105.661 152.122 105.775 152.15 105.838L152.189 105.918H151.087C151.087 105.918 151.073 105.873 151.073 105.852C151.052 105.838 151.052 105.807 151.052 105.775L151.038 105.56V105.018C151.038 104.246 150.819 103.732 150.388 103.482C150.159 103.343 149.707 103.266 149.081 103.266H148.157V105.921H146.965V99.2136H149.321L149.314 99.2101Z" fill="#231F20"></path>
  </g>
  <defs>
    <clipPath id="clip0_15060_6907">
      <rect width="160" height="164" fill="white"></rect>
    </clipPath>
  </defs>
</svg>
