<?xml version="1.0" encoding="UTF-8"?>
<svg xmlns="http://www.w3.org/2000/svg" width="160" height="164" viewBox="0 0 160 164" fill="none">
  <g clip-path="url(#clip0_15060_6877)">
    <path d="M31.6975 72.3695L30.8537 73.6351C36.5005 75.9568 38.7822 80.1732 38.7822 84.6891C38.7822 86.9484 38.1731 88.9929 36.9798 88.9929H22.1737C20.1591 88.9929 19.555 88.2765 20.4637 86.4815C22.0864 83.2887 26.9343 77.175 29.9275 73.4978C30.3619 72.9611 30.7239 72.1173 29.1561 71.6954C27.546 71.2685 24.9522 71.0888 22.7529 71.0888C11.619 71.0888 3.85522 77.1126 3.85522 84.8714C3.85522 92.0135 10.588 98.6839 22.7229 98.6839C28.0902 98.6839 34.6607 97.1761 38.3953 92.9497H35.1824C31.5502 96.2324 26.807 96.9814 22.7554 96.9814C12.9571 96.9814 6.76102 91.8962 6.76102 84.8714C6.76102 78.3932 13.7784 72.5792 22.6331 72.5792C23.694 72.5792 24.036 72.8038 22.9177 74.1943C20.6534 77.0052 16.6043 82.5747 14.7095 85.84C12.67 89.3324 14.752 92.1758 19.3204 92.1758H37.8411C38.9844 92.1758 39.631 91.5218 40.3025 90.3385C40.8392 89.3923 41.6705 87.4751 41.6705 84.8689C41.6705 79.604 37.7237 74.7685 31.7025 72.3695" fill="#231F20"></path>
    <path d="M89.8158 89.4597H72.2138C72.3985 87.9893 73.1549 86.524 75.5564 86.524H86.4707V83.8428H71.9467C72.1938 82.732 73.3272 81.1492 75.9459 81.1492H87.4817V79.6614L95.7697 85.7101L89.8133 89.4597H89.8158ZM152.538 83.8553H139.983C140.39 82.2477 141.636 81.1442 143.977 81.1442H155.993V78.4456H143.219C135.937 78.4456 134.202 83.6232 134.202 86.5514H149.754C151.891 86.5514 151.891 89.4298 149.834 89.4298C147.777 89.4298 132.639 89.4348 132.639 89.4348V78.4456H127.459V89.4323H118.869C116.565 89.4323 115.596 88.3289 115.596 86.6188V78.4456H107.298L99.8838 83.1189L93.493 78.4506H75.0971C69.7748 78.4506 65.9928 81.5586 65.5534 85.448H69.0084C67.6104 86.3467 66.547 87.8246 65.9553 89.4572H55.0736C53.019 89.4572 52.0654 88.3863 52.0654 86.3817V78.4456H46.8679V85.1959C46.8679 89.4822 49.2095 92.1783 54.4794 92.1783H90.747L98.1937 87.4851L104.617 92.1783H112.276L102.313 84.8913L110.409 79.7937V87.5075C110.409 89.8991 113.507 92.1783 116.322 92.1783H152.565C158.863 92.1783 158.826 83.8553 152.538 83.8553Z" fill="#231F20"></path>
  </g>
  <defs>
    <clipPath id="clip0_15060_6877">
      <rect width="160" height="164" fill="white"></rect>
    </clipPath>
  </defs>
</svg>
