<?xml version="1.0" encoding="UTF-8"?>
<svg xmlns="http://www.w3.org/2000/svg" width="160" height="164" viewBox="0 0 160 164" fill="none">
  <path d="M104.425 30.5627C97.6163 28.369 89.1438 27.0829 79.959 27.0829C70.7741 27.0829 62.3016 28.3753 55.4933 30.5627C37.382 36.3813 24.938 48.4723 24.938 62.4482C24.938 82.1039 49.5676 98.0403 79.959 98.0403C110.35 98.0403 134.974 82.1039 134.974 62.4482C134.974 48.4723 122.53 36.3876 104.425 30.5627ZM79.959 82.7406C75.4264 82.7406 71.7197 73.8268 71.5053 62.6184C74.235 62.8642 77.0591 62.9966 79.959 62.9966C82.8588 62.9966 85.6829 62.8642 88.4126 62.6184C88.1919 73.8205 84.4915 82.7406 79.959 82.7406ZM72.0727 53.8496C73.3083 45.9885 76.372 40.4158 79.9527 40.4158C83.5333 40.4158 86.597 45.9885 87.8326 53.8496C85.311 54.0765 82.676 54.2026 79.9527 54.2026C77.2293 54.2026 74.588 54.0765 72.0727 53.8496ZM92.6551 53.257C90.8144 40.9138 85.8279 32.0631 79.959 32.0631C74.09 32.0631 69.0972 40.9138 67.2565 53.257C56.0795 51.5108 48.2689 47.5456 48.2689 42.9122C48.2689 36.6776 62.4529 31.6281 79.959 31.6281C97.465 31.6281 111.643 36.6839 111.643 42.9122C111.643 47.5393 103.832 51.5108 92.6551 53.257ZM32.9692 61.1432C32.9692 55.1167 35.2891 49.4683 39.3362 44.6143C39.2921 44.9547 39.2669 45.2888 39.2669 45.6355C39.2669 53.2129 50.6518 59.6618 66.5252 62.0258C66.5126 62.5995 66.5 63.1731 66.5 63.7531C66.5 77.8487 70.4085 89.7884 75.8173 93.8986C51.8055 92.4298 32.9692 78.3341 32.9692 61.1432ZM84.1007 93.8986C89.5032 89.7821 93.4116 77.8487 93.4116 63.7531C93.4116 63.1731 93.4053 62.5995 93.3927 62.0258C109.266 59.6555 120.651 53.2129 120.651 45.6355C120.651 45.2951 120.626 44.9547 120.582 44.6143C124.629 49.4746 126.949 55.1167 126.949 61.1432C126.949 78.3278 108.112 92.4298 84.107 93.8986H84.1007Z" fill="#00140B"></path>
  <path d="M26.8293 108.763H5.47778V113.485H13.3577V133.614H18.9493L18.943 113.485H26.8293V108.763Z" fill="#00140B"></path>
  <path d="M41.2464 108.02C33.9716 108.02 28.0774 113.92 28.0774 121.189C28.0774 128.457 33.9716 134.358 41.2464 134.358C48.5211 134.358 54.4153 128.457 54.4153 121.189C54.4153 113.92 48.5211 108.02 41.2464 108.02ZM47.7079 125.179C46.8506 127.354 44.909 128.987 42.5513 129.403C42.1289 129.472 41.6939 129.516 41.2527 129.516C40.8114 129.516 40.3764 129.472 39.9604 129.403C37.6027 128.987 35.6548 127.354 34.8037 125.179C34.3183 123.943 34.0535 122.601 34.0535 121.189C34.0535 119.776 34.3246 118.434 34.8037 117.198C35.6611 115.023 37.609 113.391 39.9604 112.981C40.3764 112.905 40.8177 112.867 41.2527 112.867C41.6876 112.867 42.1289 112.905 42.5513 112.981C44.909 113.397 46.8569 115.03 47.7079 117.198C48.1933 118.434 48.4581 119.783 48.4581 121.189C48.4581 122.594 48.1933 123.943 47.7079 125.179Z" fill="#00140B"></path>
  <path d="M54.5098 108.763H61.0911L67.2438 119.449L73.3964 108.763H79.9778L70.0364 124.422V133.614H64.4511V124.422L54.5098 108.763Z" fill="#00140B"></path>
  <path d="M80.0787 121.189C80.0787 113.914 85.9729 108.02 93.2477 108.02C100.522 108.02 106.417 113.914 106.417 121.189C106.417 128.463 100.522 134.364 93.2477 134.364C85.9729 134.364 80.0787 128.463 80.0787 121.189ZM93.254 129.516C93.6953 129.516 94.1303 129.472 94.5463 129.403C96.904 128.987 98.8519 127.354 99.703 125.179C100.188 123.943 100.453 122.601 100.453 121.189C100.453 119.776 100.188 118.434 99.703 117.204C98.8456 115.03 96.904 113.397 94.5463 112.981C94.124 112.905 93.689 112.867 93.254 112.867C92.819 112.867 92.3778 112.911 91.9554 112.981C89.5977 113.397 87.6498 115.03 86.7988 117.204C86.3134 118.44 86.0423 119.783 86.0423 121.189C86.0423 122.594 86.3134 123.943 86.7988 125.179C87.6498 127.354 89.5977 128.987 91.9554 129.403C92.3778 129.478 92.8127 129.516 93.254 129.516Z" fill="#00140B"></path>
  <path d="M146.182 128.129H135.604L133.568 133.595H127.352L137.414 108.744H144.367L154.434 133.595H148.219L146.176 128.129H146.182ZM144.556 123.779L140.893 113.964L137.231 123.779H144.556Z" fill="#00140B"></path>
  <path d="M128.991 108.763H107.64V113.485H115.52V133.614H121.111V113.485H128.991V108.763Z" fill="#00140B"></path>
</svg>
